<svg width="275" height="225" viewBox="0 0 275 225" fill="none" xmlns="http://www.w3.org/2000/svg">
<path d="M137.041 58.3013L0.0324707 221.545L134.126 0L137.041 58.3013Z" fill="#A401C6"/>
<path d="M274.049 224.46L139.956 2.91516L218.662 198.225L274.049 224.46Z" fill="#A401C6"/>
<path d="M46.6735 192.394L0.0324707 224.46H265.303L46.6735 192.394Z" fill="#A401C6"/>
<path d="M149.5 144C146.288 144 143.181 142.566 140.75 139.963C138.386 137.423 136.942 134.038 136.688 130.431C136.416 126.584 137.589 123.047 139.991 120.469C142.392 117.891 145.75 116.5 149.5 116.5C153.223 116.5 156.591 117.916 158.984 120.487C161.402 123.084 162.578 126.616 162.306 130.43C162.045 134.041 160.603 137.425 158.244 139.961C155.819 142.566 152.714 144 149.5 144ZM170.098 171.5H128.903C128.241 171.504 127.586 171.355 126.991 171.066C126.395 170.777 125.873 170.355 125.466 169.833C125.034 169.267 124.735 168.61 124.593 167.912C124.451 167.214 124.468 166.493 124.644 165.803C125.959 160.52 129.219 156.139 134.069 153.134C138.373 150.469 143.853 149 149.5 149C155.258 149 160.594 150.406 164.923 153.07C169.784 156.059 173.048 160.466 174.358 165.812C174.531 166.503 174.547 167.224 174.403 167.922C174.259 168.619 173.959 169.275 173.527 169.841C173.12 170.361 172.599 170.78 172.005 171.068C171.411 171.356 170.759 171.503 170.098 171.5ZM119.969 144.625C114.47 144.625 109.636 139.513 109.188 133.23C108.966 130.011 109.969 127.034 112 124.852C114.009 122.691 116.844 121.5 119.969 121.5C123.094 121.5 125.906 122.697 127.927 124.87C129.973 127.07 130.973 130.041 130.739 133.233C130.291 139.514 125.458 144.625 119.969 144.625ZM130.228 149.539C127.48 148.195 123.913 147.523 119.97 147.523C115.367 147.523 110.897 148.723 107.381 150.902C103.395 153.375 100.714 156.977 99.6313 161.325C99.4728 161.95 99.4578 162.604 99.5874 163.236C99.717 163.868 99.9879 164.462 100.38 164.975C100.751 165.452 101.228 165.838 101.772 166.102C102.316 166.367 102.914 166.503 103.519 166.5H120.863C121.155 166.5 121.439 166.397 121.663 166.21C121.888 166.022 122.04 165.761 122.092 165.473C122.109 165.375 122.131 165.277 122.156 165.18C123.481 159.858 126.586 155.361 131.173 152.083C131.342 151.961 131.478 151.799 131.568 151.612C131.659 151.425 131.701 151.218 131.691 151.01C131.681 150.802 131.62 150.6 131.512 150.422C131.405 150.244 131.254 150.096 131.075 149.991C130.83 149.847 130.548 149.695 130.228 149.539Z" fill="#A401C6"/>
</svg>
