<svg width="275" height="225" viewBox="0 0 275 225" fill="none" xmlns="http://www.w3.org/2000/svg">
<path d="M137.008 58.3013L0 221.545L134.093 0L137.008 58.3013Z" fill="#A401C6"/>
<path d="M274.016 224.46L139.923 2.91516L218.63 198.225L274.016 224.46Z" fill="#A401C6"/>
<path d="M46.6411 192.394L0 224.46H265.271L46.6411 192.394Z" fill="#A401C6"/>
<path d="M167.105 128.133L139.828 114.656C138.948 114.224 137.98 114 137 114C136.02 114 135.052 114.224 134.172 114.656L106.895 128.133C105.427 128.845 104.188 129.957 103.322 131.341C102.457 132.725 101.998 134.325 102 135.958V164.803C102 169.628 105.972 173.553 110.855 173.553H163.145C168.028 173.553 172 169.628 172 164.803V135.958C172.002 134.325 171.543 132.725 170.678 131.341C169.812 129.957 168.573 128.845 167.105 128.133V128.133ZM136.434 119.128C136.61 119.042 136.804 118.997 137 118.997C137.196 118.997 137.39 119.042 137.566 119.128L164.031 132.2L137.156 145.481C136.98 145.568 136.787 145.613 136.591 145.613C136.395 145.613 136.201 145.568 136.025 145.481L109.555 132.408L136.434 119.128Z" fill="#A401C6"/>
</svg>
