<svg width="275" height="225" viewBox="0 0 275 225" fill="none" xmlns="http://www.w3.org/2000/svg">
<path d="M137.008 58.3013L0 221.545L134.093 0L137.008 58.3013Z" fill="#A401C6"/>
<path d="M274.016 224.46L139.923 2.91516L218.63 198.225L274.016 224.46Z" fill="#A401C6"/>
<path d="M46.6411 192.394L0 224.46H265.271L46.6411 192.394Z" fill="#A401C6"/>
<path d="M173 124C173 121.348 171.946 118.804 170.071 116.929C168.196 115.054 165.652 114 163 114H160.5V111.57C160.5 110.225 159.466 109.07 158.12 109.003C157.782 108.987 157.444 109.039 157.127 109.157C156.81 109.276 156.52 109.457 156.275 109.69C156.03 109.924 155.835 110.205 155.702 110.516C155.569 110.827 155.5 111.162 155.5 111.5V114H120.5V111.57C120.5 110.225 119.466 109.07 118.12 109.003C117.782 108.987 117.444 109.039 117.127 109.157C116.81 109.276 116.52 109.457 116.275 109.69C116.03 109.924 115.835 110.205 115.702 110.516C115.569 110.827 115.5 111.162 115.5 111.5V114H113C110.348 114 107.804 115.054 105.929 116.929C104.054 118.804 103 121.348 103 124V125.875C103 126.041 103.066 126.2 103.183 126.317C103.3 126.434 103.459 126.5 103.625 126.5H172.375C172.541 126.5 172.7 126.434 172.817 126.317C172.934 126.2 173 126.041 173 125.875V124ZM103 169C103 171.652 104.054 174.196 105.929 176.071C107.804 177.946 110.348 179 113 179H163C165.652 179 168.196 177.946 170.071 176.071C171.946 174.196 173 171.652 173 169V131.969C173 131.844 172.951 131.725 172.863 131.637C172.775 131.549 172.656 131.5 172.531 131.5H103.469C103.344 131.5 103.225 131.549 103.137 131.637C103.049 131.725 103 131.844 103 131.969V169ZM156.75 136.5C157.492 136.5 158.217 136.72 158.833 137.132C159.45 137.544 159.931 138.13 160.215 138.815C160.498 139.5 160.573 140.254 160.428 140.982C160.283 141.709 159.926 142.377 159.402 142.902C158.877 143.426 158.209 143.783 157.482 143.928C156.754 144.073 156 143.998 155.315 143.715C154.63 143.431 154.044 142.95 153.632 142.333C153.22 141.717 153 140.992 153 140.25C153 139.255 153.395 138.302 154.098 137.598C154.802 136.895 155.755 136.5 156.75 136.5ZM156.75 149C157.492 149 158.217 149.22 158.833 149.632C159.45 150.044 159.931 150.63 160.215 151.315C160.498 152 160.573 152.754 160.428 153.482C160.283 154.209 159.926 154.877 159.402 155.402C158.877 155.926 158.209 156.283 157.482 156.428C156.754 156.573 156 156.498 155.315 156.215C154.63 155.931 154.044 155.45 153.632 154.833C153.22 154.217 153 153.492 153 152.75C153 151.755 153.395 150.802 154.098 150.098C154.802 149.395 155.755 149 156.75 149ZM144.25 136.5C144.992 136.5 145.717 136.72 146.333 137.132C146.95 137.544 147.431 138.13 147.715 138.815C147.998 139.5 148.073 140.254 147.928 140.982C147.783 141.709 147.426 142.377 146.902 142.902C146.377 143.426 145.709 143.783 144.982 143.928C144.254 144.073 143.5 143.998 142.815 143.715C142.13 143.431 141.544 142.95 141.132 142.333C140.72 141.717 140.5 140.992 140.5 140.25C140.5 139.255 140.895 138.302 141.598 137.598C142.302 136.895 143.255 136.5 144.25 136.5ZM144.25 149C144.992 149 145.717 149.22 146.333 149.632C146.95 150.044 147.431 150.63 147.715 151.315C147.998 152 148.073 152.754 147.928 153.482C147.783 154.209 147.426 154.877 146.902 155.402C146.377 155.926 145.709 156.283 144.982 156.428C144.254 156.573 143.5 156.498 142.815 156.215C142.13 155.931 141.544 155.45 141.132 154.833C140.72 154.217 140.5 153.492 140.5 152.75C140.5 151.755 140.895 150.802 141.598 150.098C142.302 149.395 143.255 149 144.25 149ZM144.25 161.5C144.992 161.5 145.717 161.72 146.333 162.132C146.95 162.544 147.431 163.13 147.715 163.815C147.998 164.5 148.073 165.254 147.928 165.982C147.783 166.709 147.426 167.377 146.902 167.902C146.377 168.426 145.709 168.783 144.982 168.928C144.254 169.073 143.5 168.998 142.815 168.715C142.13 168.431 141.544 167.95 141.132 167.333C140.72 166.717 140.5 165.992 140.5 165.25C140.5 164.255 140.895 163.302 141.598 162.598C142.302 161.895 143.255 161.5 144.25 161.5ZM131.75 149C132.492 149 133.217 149.22 133.833 149.632C134.45 150.044 134.931 150.63 135.215 151.315C135.498 152 135.573 152.754 135.428 153.482C135.283 154.209 134.926 154.877 134.402 155.402C133.877 155.926 133.209 156.283 132.482 156.428C131.754 156.573 131 156.498 130.315 156.215C129.63 155.931 129.044 155.45 128.632 154.833C128.22 154.217 128 153.492 128 152.75C128 151.755 128.395 150.802 129.098 150.098C129.802 149.395 130.755 149 131.75 149ZM131.75 161.5C132.492 161.5 133.217 161.72 133.833 162.132C134.45 162.544 134.931 163.13 135.215 163.815C135.498 164.5 135.573 165.254 135.428 165.982C135.283 166.709 134.926 167.377 134.402 167.902C133.877 168.426 133.209 168.783 132.482 168.928C131.754 169.073 131 168.998 130.315 168.715C129.63 168.431 129.044 167.95 128.632 167.333C128.22 166.717 128 165.992 128 165.25C128 164.255 128.395 163.302 129.098 162.598C129.802 161.895 130.755 161.5 131.75 161.5ZM119.25 149C119.992 149 120.717 149.22 121.333 149.632C121.95 150.044 122.431 150.63 122.715 151.315C122.998 152 123.073 152.754 122.928 153.482C122.783 154.209 122.426 154.877 121.902 155.402C121.377 155.926 120.709 156.283 119.982 156.428C119.254 156.573 118.5 156.498 117.815 156.215C117.13 155.931 116.544 155.45 116.132 154.833C115.72 154.217 115.5 153.492 115.5 152.75C115.5 151.755 115.895 150.802 116.598 150.098C117.302 149.395 118.255 149 119.25 149ZM119.25 161.5C119.992 161.5 120.717 161.72 121.333 162.132C121.95 162.544 122.431 163.13 122.715 163.815C122.998 164.5 123.073 165.254 122.928 165.982C122.783 166.709 122.426 167.377 121.902 167.902C121.377 168.426 120.709 168.783 119.982 168.928C119.254 169.073 118.5 168.998 117.815 168.715C117.13 168.431 116.544 167.95 116.132 167.333C115.72 166.717 115.5 165.992 115.5 165.25C115.5 164.255 115.895 163.302 116.598 162.598C117.302 161.895 118.255 161.5 119.25 161.5Z" fill="#A401C6"/>
</svg>
